HIERARCHY
ROOT ui
{
	 OFFSET 0 0 0
	 CHANNELS 3 XPosition YPosition Z Position
	 EndSite
	 {
	 OFFSET 0 -1 0
	 }
}
ROOT li
{
	 OFFSET 0 0 0
	 CHANNELS 3 XPosition YPosition Z Position
	 EndSite
	 {
	 OFFSET 0 -1 0
	 }
}
ROOT ul
{
	 OFFSET 0 0 0
	 CHANNELS 3 XPosition YPosition Z Position
	 EndSite
	 {
	 OFFSET 0 -1 0
	 }
}
ROOT ll
{
	 OFFSET 0 0 0
	 CHANNELS 3 XPosition YPosition Z Position
	 EndSite
	 {
	 OFFSET 0 -1 0
	 }
}
ROOT tt
{
	 OFFSET 0 0 0
	 CHANNELS 3 XPosition YPosition Z Position
	 EndSite
	 {
	 OFFSET 0 -1 0
	 }
}
ROOT tb
{
	 OFFSET 0 0 0
	 CHANNELS 3 XPosition YPosition Z Position
	 EndSite
	 {
	 OFFSET 0 -1 0
	 }
}
ROOT td
{
	 OFFSET 0 0 0
	 CHANNELS 3 XPosition YPosition Z Position
	 EndSite
	 {
	 OFFSET 0 -1 0
	 }
}
ROOT v
{
	 OFFSET 0 0 0
	 CHANNELS 3 XPosition YPosition Z Position
	 EndSite
	 {
	 OFFSET 0 -1 0
	 }
}
ROOT bn
{
	 OFFSET 0 0 0
	 CHANNELS 3 XPosition YPosition Z Position
	 EndSite
	 {
	 OFFSET 0 -1 0
	 }
}
MOTION
Frames: 19
Frame Time: 0.002
-0.0031734850406646728	-3.226520121097565E-4	0		0.513523193359375	-2.32823095703125	0		-1.1111875	0.0019200730323791504	0		-0.8061129760742187	-2.274412353515625	0		1.522034912109375	-0.5156831665039062	0		3.290631103515625	-0.038826766967773436	0		4.66327783203125	0.04296419906616211	0		5.628544921875	0.09961250305175781	0		-0.36162112426757814	5.855505859375	0		
-0.027460512161254884	-2.2530899941921234E-4	0		0.5400840454101562	-2.333540283203125	0		-1.10947509765625	0.0018766419887542725	0		-0.8065262451171875	-2.27645556640625	0		1.5157373046875	-0.5137948608398437	0		3.30628125	-0.04718896484375	0		4.6649921875	0.04263982009887695	0		5.63689208984375	0.09885106658935547	0		-0.3446243896484375	5.8553134765625	0		
-0.03077051544189453	0.003715245008468628	0		0.487666748046875	-2.3282587890625	0		-1.1118453369140624	-0.0021362218856811523	0		-0.8049799194335937	-2.276513916015625	0		1.511416748046875	-0.5079236755371094	0		3.27900732421875	-0.03823369598388672	0		4.66360888671875	0.036331863403320314	0		5.636498046875	0.051523040771484375	0		-0.3426730346679687	5.855232421875	0		
-0.024213544845581053	-4.1840898990631105E-4	0		0.5430982055664062	-2.3337900390625	0		-1.1062279052734374	0.0017915079593658447	0		-0.8055215454101563	-2.2785556640625	0		1.5129786376953125	-0.5080965576171875	0		3.290486083984375	-0.052570404052734374	0		4.65824365234375	0.04205437088012695	0		5.634953125	0.10974861907958984	0		-0.3217557373046875	5.8600078125	0		
-0.02271208190917969	-5.119439959526062E-4	0		0.4945547790527344	-2.324530029296875	0		-1.0947342529296875	6.749870181083679E-4	0		-0.7980867919921875	-2.27265673828125	0		1.5283935546875	-0.51637255859375	0		3.309114501953125	-0.035957706451416015	0		4.67379248046875	0.047622859954833986	0		5.6508759765625	0.07077813720703124	0		-0.31996533203125	5.85992919921875	0		
0.011741233825683593	0.005144664764404297	0		0.553849609375	-2.325090087890625	0		-1.0933260498046875	6.368740200996399E-4	0		-0.7937647705078125	-2.269732177734375	0		1.5338076171875	-0.5125675659179687	0		3.29148291015625	-0.04106121826171875	0		4.675203125	0.0473076286315918	0		5.63701611328125	0.10849929046630859	0		-0.31827560424804685	5.859853515625	0		
-0.019992769241333006	-6.861559748649597E-4	0		0.5220228881835938	-2.3289462890625	0		-1.107968017578125	0.006725549221038818	0		-0.760614013671875	-2.2770283203125	0		1.51712646484375	-0.5085852966308594	0		3.2997998046875	-0.04035371780395508	0		4.67247021484375	0.041036163330078125	0		5.63505419921875	0.09585225677490235	0		-0.35073013305664064	5.8550458984375	0		
0.007218595027923584	-9.672099947929383E-4	0		0.5480916137695313	-2.334243408203125	0		-1.1007945556640626	0.0016486740112304687	0		-0.798502197265625	-2.276770751953125	0		1.5242691650390625	-0.5147791748046875	0		3.2909638671875	-0.046502674102783206	0		4.67368408203125	0.040748062133789065	0		5.6443662109375	0.06225859069824219	0		-0.33425732421875	5.854865234375	0		
-0.01766805648803711	-8.376629948616028E-4	0		0.4951455078125	-2.328918212890625	0		-1.099681884765625	0.0016221469640731812	0		-0.7625267944335937	-2.282083740234375	0		1.530312744140625	-0.5209564819335938	0		3.30212109375	-0.0407946891784668	0		4.67479833984375	0.04047550582885742	0		5.64804541015625	0.07377979278564453	0		-0.34789483642578123	5.85492333984375	0		
0.00934486198425293	-0.0011077159643173217	0		0.5609765625	-2.34051513671875	0		-1.0946446533203125	0.004568671226501465	0		-0.7846124877929688	-2.2829384765625	0		1.534336669921875	-0.5171085205078125	0		3.293086181640625	-0.04691592788696289	0		4.67986083984375	0.046188335418701175	0		5.64031005859375	0.10630989074707031	0		-0.3126059875488281	5.859603515625	0		
-0.008682578086853028	0.00598308801651001	0		0.503947998046875	-2.3221376953125	0		-1.0937276611328124	0.004551752090454102	0		-0.7547205200195313	-2.275196533203125	0		1.5352337646484375	-0.5172257080078125	0		3.30404833984375	-0.04117934417724609	0		4.67673193359375	0.039982967376708985	0		5.640958984375	0.10584420776367187	0		-0.32654428100585936	5.84967529296875	0		
0.007115435123443603	0.0028141279220581057	0		0.5536062622070312	-2.332594482421875	0		-1.09692919921875	0.0015722589492797852	0		-0.792978515625	-2.27491064453125	0		1.536037353515625	-0.5173308715820313	0		3.303805419921875	-0.04933951187133789	0		4.6775556640625	0.03976560211181641	0		5.64578125	0.09322405242919922	0		-0.35955984497070315	5.84390673828125	0		
-0.014185579299926757	-0.0010529229640960694	0		0.5252599487304688	-2.332424072265625	0		-1.1002308349609375	-0.0024015719890594484	0		-0.7573648071289063	-2.280205078125	0		1.522814453125	-0.509312744140625	0		3.30559765625	-0.04149946594238281	0		4.678287109375	0.03956831359863281	0		5.63916552734375	0.09297176361083985	0		-0.3245893249511719	5.84960546875	0		
0.012454676628112792	-0.0012950619459152221	0		0.525830078125	-2.332474853515625	0		-1.0895980224609374	-0.003482697010040283	0		-0.7937678833007813	-2.2769208984375	0		1.53434375	-0.5214813232421875	0		3.301133544921875	-0.05459429931640625	0		4.67892919921875	0.03939132690429688	0		5.65447021484375	0.054272071838378906	0		-0.3086907653808594	5.85946044921875	0		
-0.012988826751708985	-0.0011146440505981445	0		0.5112980346679687	-2.335396484375	0		-1.085010498046875	4.871860146522522E-4	0		-0.7782993774414062	-2.28004736328125	0		1.5379171142578125	-0.5175755615234375	0		3.3338232421875	-0.03797026443481445	0		4.6884697265625	0.03716262817382812	0		5.65775537109375	0.06601435089111328	0		-0.30797390747070313	5.85944091796875	0		
0.020532257080078126	0.004598241806030273	0		0.5617935180664062	-2.32583349609375	0		-1.08547216796875	0.008499941825866698	0		-0.7778814086914062	-2.2800498046875	0		1.5383782958984376	-0.5176348876953125	0		3.297216796875	-0.04777554702758789	0		4.6799609375	0.03909838104248047	0		5.64323876953125	0.10409285736083984	0		-0.3073563232421875	5.8594267578125	0		
-0.01211972427368164	-0.001151769995689392	0		0.5560821533203125	-2.332813232421875	0		-1.0941329345703126	0.0015802210569381713	0		-0.7165374755859375	-2.280541259765625	0		1.5387623291015624	-0.5176842651367187	0		3.292667724609375	-0.0408228645324707	0		4.68035693359375	0.03898101043701172	0		5.643517578125	0.10385817718505859	0		-0.3219144287109375	5.84953857421875	0		
-0.011800290107727051	-0.001162953019142151	0		0.5563572998046875	-2.332835205078125	0		-1.0938134765625	0.0015895969867706298	0		-0.7922345581054687	-2.27692431640625	0		1.5360396728515624	-0.5217005615234375	0		3.302872802734375	-0.05497727584838867	0		4.67762890625	0.032905128479003905	0		5.649298828125	0.05856637191772461	0		-0.32148382568359374	5.84953369140625	0		
-0.01155286979675293	-0.0011704859733581542	0		0.5545496826171875	-2.3348359375	0		-1.1016304931640626	-0.0063347921371459965	0		-0.7920250854492188	-2.2769189453125	0		1.5362784423828124	-0.52173388671875	0		3.308224609375	-0.04208101272583008	0		4.67092578125	0.0388759765625	0		5.6523662109375	0.07044697570800781	0		-0.30605831909179687	5.8594091796875	0		
